<?xml version="1.0" standalone="no"?>
<!DOCTYPE svg PUBLIC "-//W3C//DTD SVG 20010904//EN"
 "http://www.w3.org/TR/2001/REC-SVG-20010904/DTD/svg10.dtd">
<svg version="1.0" xmlns="http://www.w3.org/2000/svg"
 width="300.000000pt" height="129.000000pt" viewBox="0 0 300.000000 129.000000"
 preserveAspectRatio="xMidYMid meet">
<metadata>
Created by potrace 1.10, written by Peter Selinger 2001-2011
</metadata>
<g transform="translate(0.000000,129.000000) scale(0.100000,-0.100000)"
fill="#000000" stroke="none">
<path d="M1330 1212 c-39 -19 -80 -74 -80 -107 0 -19 -9 -25 -46 -34 -54 -14
-99 -56 -109 -101 -18 -83 33 -171 108 -185 32 -6 38 -12 47 -45 21 -80 75
-116 160 -108 35 4 59 13 76 29 31 29 54 71 54 97 0 15 9 21 38 25 71 12 115
66 115 142 0 74 -41 125 -115 146 -30 8 -38 15 -38 33 0 57 -79 126 -145 126
-16 0 -46 -8 -65 -18z m125 -16 c18 -8 40 -25 48 -38 19 -30 32 -88 19 -88 -5
0 -12 14 -16 31 -10 49 -57 89 -106 89 -91 0 -124 -45 -124 -171 -1 -43 -4
-81 -8 -85 -5 -4 -8 33 -8 82 0 105 18 149 71 176 41 22 78 23 124 4z m7 -43
c9 -8 21 -28 27 -44 8 -23 7 -29 -5 -29 -7 0 -14 8 -14 17 0 28 -41 63 -72 63
-66 0 -91 -45 -87 -157 1 -38 -2 -67 -7 -66 -14 4 -17 153 -3 186 22 53 116
71 161 30z m-17 -36 c19 -27 19 -37 0 -37 -8 0 -15 7 -15 15 0 23 -34 36 -55
21 -14 -10 -17 -29 -19 -96 -1 -57 -5 -85 -13 -87 -16 -6 -18 149 -2 178 21
41 78 44 104 6z m-27 -30 c2 -12 -1 -15 -12 -11 -14 5 -16 -5 -16 -70 0 -44
-4 -76 -10 -76 -11 0 -14 138 -4 165 8 20 38 15 42 -8z m-173 -37 c-3 -5 -13
-10 -22 -10 -25 0 -71 -32 -82 -57 -21 -46 -13 -100 18 -135 29 -32 31 -33
133 -38 66 -4 97 -9 85 -14 -28 -13 -168 -1 -204 17 -40 21 -63 63 -63 114 0
50 18 82 59 110 34 23 88 32 76 13z m365 -8 c100 -54 85 -211 -24 -241 -49
-13 -55 1 -7 17 57 19 84 61 78 122 -4 34 -12 51 -36 72 -30 26 -37 28 -126
28 -57 0 -95 4 -95 10 0 6 36 10 88 10 66 0 96 -5 122 -18z m-370 -27 c-7 -8
-21 -15 -31 -15 -10 0 -25 -10 -33 -22 -23 -33 -20 -75 9 -103 22 -23 32 -25
115 -25 69 0 90 -3 90 -14 0 -20 -173 -13 -206 9 -76 50 -38 179 55 184 11 1
11 -2 1 -14z m369 -11 c27 -22 31 -32 31 -72 0 -26 -6 -54 -13 -63 -15 -21
-73 -50 -81 -42 -12 12 -6 23 12 23 49 0 83 60 62 111 -15 36 -54 49 -146 49
-43 0 -74 4 -74 10 0 6 36 10 89 10 82 0 92 -2 120 -26z m-369 -29 c-7 -8 -18
-15 -26 -15 -18 0 -28 -38 -14 -55 9 -11 36 -15 101 -15 75 0 89 -2 89 -16 0
-14 -12 -16 -90 -12 -103 5 -124 17 -122 70 1 35 23 58 55 58 16 0 17 -3 7
-15z m348 -1 c25 -17 31 -75 10 -91 -24 -19 -48 -23 -48 -9 0 8 9 16 20 19 14
3 20 14 20 31 0 35 -30 46 -121 46 -39 0 -69 4 -69 10 0 17 162 12 188 -6z
m-344 -39 c-5 -13 6 -15 70 -15 44 0 76 -4 76 -10 0 -12 -149 -13 -169 -1 -17
11 -7 41 13 41 10 0 13 -6 10 -15z m329 1 c6 -14 -10 -36 -26 -36 -5 0 -7 7
-3 15 4 13 -7 15 -69 15 -43 0 -75 4 -75 10 0 16 167 13 173 -4z m-153 -85 c0
-38 -3 -76 -6 -85 -8 -20 -44 -21 -44 -1 0 8 7 15 15 15 12 0 15 14 15 70 0
40 4 70 10 70 6 0 10 -30 10 -69z m40 0 c0 -71 -12 -120 -33 -133 -24 -15 -66
-8 -81 14 -9 12 -16 28 -16 35 0 22 20 14 30 -12 10 -27 38 -33 58 -13 7 7 12
44 12 95 0 67 3 83 15 83 12 0 15 -14 15 -69z m40 -6 c0 -118 -28 -165 -99
-165 -48 0 -77 16 -94 53 -21 43 -21 47 -2 47 9 0 15 -9 15 -23 0 -56 87 -80
130 -37 17 17 20 33 20 110 0 73 3 90 15 90 12 0 15 -15 15 -75z m28 -19 c-4
-99 -17 -132 -62 -161 -50 -33 -149 -17 -179 29 -20 30 -31 86 -18 86 6 0 11
-8 11 -17 0 -10 9 -32 20 -50 24 -40 77 -57 131 -43 62 17 74 39 77 151 2 59
8 99 14 99 7 0 9 -34 6 -94z"/>
<path d="M678 526 c-14 -10 -18 -28 -18 -81 0 -86 14 -105 71 -98 l39 6 0 -47
c0 -42 -2 -46 -25 -46 -20 0 -25 5 -25 25 0 22 -4 25 -33 25 -32 0 -33 -1 -29
-37 2 -21 9 -44 14 -50 13 -17 130 -17 146 -1 16 16 16 150 0 166 -7 7 -31 12
-55 12 l-43 0 0 39 c0 33 3 39 25 43 22 5 25 2 25 -23 0 -26 3 -29 33 -29 32
0 32 0 29 43 -2 23 -9 48 -14 55 -14 16 -118 15 -140 -2z m52 -17 c-13 -6 -28
-15 -32 -22 -5 -8 -8 -7 -8 4 0 21 4 24 37 26 l28 2 -25 -10z m80 -24 c0 -21
-5 -19 -25 11 -16 25 -16 25 4 14 12 -6 21 -17 21 -25z m-112 -47 c-1 -13 2
-34 6 -47 6 -17 5 -22 -5 -19 -15 5 -25 88 -10 88 6 0 10 -10 9 -22z m106 -90
c3 -12 1 -29 -4 -37 -7 -13 -9 -10 -10 11 0 15 -4 30 -10 33 -15 9 -12 25 4
19 8 -3 17 -15 20 -26z m-2 -94 c-4 -24 -8 -25 -56 -22 -41 2 -51 7 -55 23 -3
19 -3 19 16 3 26 -24 60 -23 75 2 18 28 26 25 20 -6z"/>
<path d="M887 522 c-14 -15 -17 -42 -17 -153 0 -92 4 -139 12 -147 16 -16 130
-16 146 0 17 17 17 289 0 306 -20 20 -122 15 -141 -6z m123 -24 c0 -15 -3 -15
-27 -2 -55 28 -74 10 -74 -72 0 -32 -3 -53 -7 -47 -6 9 -7 79 -3 125 1 9 30
15 74 14 28 0 37 -4 37 -18z m-30 -123 l0 -115 -25 0 -25 0 0 109 c0 106 1
110 23 114 12 2 23 5 25 6 1 0 2 -51 2 -114z m39 63 c0 -27 -2 -29 -8 -13 -5
11 -6 26 -4 33 8 21 13 13 12 -20z m-112 -145 c-3 -10 -5 -4 -5 12 0 17 2 24
5 18 2 -7 2 -21 0 -30z m109 -50 c-4 -10 -20 -13 -58 -11 -44 2 -53 6 -56 23
-3 19 -2 19 11 3 8 -10 28 -18 45 -18 35 0 51 20 54 67 1 20 2 18 5 -11 3 -21
2 -45 -1 -53z"/>
<path d="M1085 373 l0 -168 30 0 30 0 -3 80 c-4 123 -16 145 -22 45 -6 -80 -6
-77 -8 48 -1 72 2 132 7 132 13 0 40 -74 31 -85 -5 -6 2 -39 14 -75 45 -126
51 -137 84 -142 l30 -4 2 168 1 168 -33 0 -33 0 5 -97 c8 -136 8 -136 -42 -3
-33 87 -38 95 -65 98 l-28 3 0 -168z m162 15 c-3 -8 -6 -5 -6 6 -1 11 2 17 5
13 3 -3 4 -12 1 -19z m3 -88 c0 -38 -3 -70 -7 -70 -7 0 -43 77 -43 91 0 4 9 9
20 12 11 3 20 12 20 21 0 9 2 16 5 16 3 0 5 -31 5 -70z"/>
<path d="M1320 372 l0 -168 33 4 32 4 0 164 0 164 -32 0 -33 0 0 -168z"/>
<path d="M1437 522 c-14 -15 -17 -42 -17 -153 0 -92 4 -139 12 -147 16 -16
133 -16 146 1 5 6 12 29 14 50 4 36 3 37 -29 37 -28 0 -32 -3 -30 -22 2 -18
-4 -24 -25 -26 l-28 -3 0 115 0 115 28 -4 c22 -2 27 -7 25 -29 -2 -23 2 -26
32 -26 l33 0 -5 43 c-8 60 -17 67 -83 67 -42 0 -61 -5 -73 -18z m53 -12 c0 -5
-6 -10 -14 -10 -8 0 -17 -10 -19 -22 -4 -20 -4 -20 -6 4 -1 18 5 28 17 31 9 3
18 5 20 6 1 0 2 -3 2 -9z m61 -1 c11 -5 17 -15 13 -20 -4 -6 -10 -5 -17 5 -7
8 -21 16 -32 19 -17 4 -17 5 -2 6 10 0 27 -4 38 -10z m-94 -96 c-3 -10 -5 -4
-5 12 0 17 2 24 5 18 2 -7 2 -21 0 -30z m0 -55 c-3 -7 -5 -2 -5 12 0 14 2 19
5 13 2 -7 2 -19 0 -25z m109 -114 c-4 -11 -19 -14 -58 -12 -44 2 -53 7 -57 23
-3 19 -3 19 16 3 30 -28 71 -23 86 9 9 21 13 23 15 9 2 -9 1 -24 -2 -32z"/>
<path d="M1730 518 c12 -29 60 -261 60 -291 0 -20 4 -22 40 -19 22 2 38 8 35
12 -5 8 48 269 61 303 5 14 0 17 -28 17 -25 0 -34 -4 -34 -17 -1 -25 -25 -175
-32 -193 -2 -8 -14 36 -25 98 l-20 112 -33 0 c-31 0 -33 -2 -24 -22z m157 -60
c-3 -8 -6 -5 -6 6 -1 11 2 17 5 13 3 -3 4 -12 1 -19z m-37 -173 c-15 -67 -33
-68 -45 -4 -6 34 -5 36 23 36 28 0 29 -2 22 -32z"/>
<path d="M1972 528 c-8 -8 -12 -57 -12 -153 0 -96 4 -145 12 -153 16 -16 123
-16 135 1 6 6 13 29 16 50 6 36 5 37 -27 37 -30 0 -33 -2 -28 -25 4 -22 1 -25
-27 -25 l-32 0 3 112 3 112 25 0 c21 0 25 -4 23 -27 -2 -24 2 -27 32 -27 l33
0 -5 43 c-3 23 -10 48 -16 55 -12 16 -119 16 -135 0z m36 -30 c-9 -7 -19 -26
-21 -43 -3 -24 -4 -21 -6 13 -1 37 2 42 21 42 19 0 20 -1 6 -12z m92 -4 c0
-14 -3 -14 -15 -4 -8 7 -15 14 -15 16 0 2 7 4 15 4 8 0 15 -7 15 -16z m-113
-141 c-2 -16 -4 -5 -4 22 0 28 2 40 4 28 2 -13 2 -35 0 -50z m15 -100 c5 -6
22 -14 36 -16 16 -3 10 -4 -13 -3 l-39 1 -2 45 c-1 27 0 33 3 15 3 -16 9 -35
15 -42z m87 -14 c-20 -12 -22 -4 -7 20 11 18 14 19 16 5 2 -9 -2 -20 -9 -25z"/>
</g>
</svg>
